<?xml version="1.0" encoding="UTF-8"?>
<svg width="72px" height="95px" viewBox="0 0 72 95" version="1.1" xmlns="http://www.w3.org/2000/svg" xmlns:xlink="http://www.w3.org/1999/xlink">
    <title>icons8-lock</title>
    <g id="Assets" stroke="none" stroke-width="1" fill="none" fill-rule="evenodd" opacity="0.194343204">
        <g id="Object-(Single)---Public" transform="translate(-202.000000, -424.000000)" fill="#000000" fill-rule="nonzero">
            <g id="Content" transform="translate(33.000000, 245.000000)">
                <g id="Assets" transform="translate(0.000000, 19.000000)">
                    <g id="Group-2" transform="translate(42.000000, 160.000000)">
                        <g id="icons8-lock" transform="translate(127.000000, 0.000000)">
                            <path d="M36,0 C21.0428573,0 9,12.1065761 9,27.1428571 L9,31.6666667 C4.05,31.6666667 0,35.7380952 0,40.7142857 L0,85.952381 C0,90.9285714 4.05,95 9,95 L63,95 C67.95,95 72,90.9285714 72,85.952381 L72,40.7142857 C72,35.7380952 67.95,31.6666667 63,31.6666667 L63,27.1428571 C63,12.1065761 50.957145,0 36,0 Z M36,9.04761905 C46.242855,9.04761905 54,16.8458049 54,27.1428571 L54,31.6666667 L18,31.6666667 L18,27.1428571 C18,16.8458049 25.7571427,9.04761905 36,9.04761905 Z M36,54.2857143 C40.95,54.2857143 45,58.3571429 45,63.3333333 C45,68.3095238 40.95,72.3809524 36,72.3809524 C31.05,72.3809524 27,68.3095238 27,63.3333333 C27,58.3571429 31.05,54.2857143 36,54.2857143 Z" id="Shape"></path>
                        </g>
                    </g>
                </g>
            </g>
        </g>
    </g>
</svg>