<?xml version="1.0" encoding="UTF-8"?>
<svg width="2560px" height="2560px" viewBox="0 0 2560 2560" xmlns="http://www.w3.org/2000/svg" xmlns:xlink="http://www.w3.org/1999/xlink" version="1.1">
 <!-- Generated by Pixelmator Pro 2.2 -->
 <path id="Ellipse" d="M2560 1280 C2560 573.076 1986.029 0 1278 0 569.971 0 -4 573.076 -4 1280 -4 1986.925 569.971 2560 1278 2560 1986.029 2560 2560 1986.925 2560 1280 Z" fill="#556080" fill-opacity="1" stroke="none"/>
 <g id="15840403551595988822">
  <path id="Path" d="M1429.652 1509.717 C1446.491 1481.652 1435.265 1447.974 1412.813 1431.135 L1328.617 1380.617 1328.617 1257.13 C1328.617 1223.452 1306.165 1201 1272.487 1201 1238.809 1201 1216.356 1223.452 1216.356 1257.13 L1216.356 1380.617 1132.161 1431.135 C1104.096 1447.974 1098.483 1481.652 1115.322 1509.717 1132.161 1537.782 1165.839 1543.396 1193.904 1526.556 L1272.487 1476.039 1278.1 1476.039 C1278.1 1476.039 1283.713 1476.039 1283.713 1476.039 L1362.296 1526.556 C1362.296 1537.782 1373.522 1537.782 1384.748 1537.782 1401.587 1537.782 1424.039 1526.556 1429.652 1509.717 Z" fill="#e7eced" fill-opacity="1" stroke="none"/>
  <path id="Path-1" d="M991.835 1088.739 L1553.139 1088.739 C1569.978 1088.739 1586.817 1083.126 1598.043 1066.287 1609.269 1055.061 1614.882 1038.222 1609.269 1021.383 1592.43 937.187 1530.687 869.831 1446.491 847.379 1424.039 841.766 1407.2 824.926 1401.587 802.474 1424.039 774.409 1440.878 735.118 1440.878 695.826 L1440.878 583.566 C1440.878 488.144 1367.909 415.174 1272.487 415.174 1177.065 415.174 1104.096 488.144 1104.096 583.566 L1104.096 695.826 C1104.096 735.118 1120.935 774.409 1143.387 802.474 1137.774 824.926 1120.935 841.766 1098.483 847.379 1014.287 869.831 952.544 937.187 941.318 1021.383 935.705 1038.222 941.318 1055.061 952.544 1066.287 958.157 1083.126 974.996 1088.739 991.835 1088.739 Z" fill="#e7eced" fill-opacity="1" stroke="none"/>
  <path id="Path-2" d="M1895.534 1745.465 C1873.082 1739.852 1856.243 1723.013 1850.63 1700.561 1873.082 1672.495 1889.921 1633.204 1889.921 1593.913 L1889.921 1481.652 C1889.921 1386.23 1816.952 1313.261 1721.53 1313.261 1626.109 1313.261 1553.139 1386.23 1553.139 1481.652 L1553.139 1593.913 C1553.139 1633.204 1569.978 1672.495 1592.43 1700.561 1586.817 1723.013 1569.978 1739.852 1547.526 1745.465 1463.33 1767.917 1401.587 1835.274 1390.361 1919.469 1384.748 1936.308 1390.361 1953.147 1401.587 1964.374 1412.813 1975.6 1429.652 1986.826 1446.491 1986.826 L2007.795 1986.826 C2024.634 1986.826 2041.473 1981.213 2052.699 1964.374 2063.926 1953.147 2069.539 1936.308 2063.926 1919.469 2041.473 1835.274 1974.117 1767.917 1895.534 1745.465 Z" fill="#e7eced" fill-opacity="1" stroke="none"/>
  <path id="Path-3" d="M997.448 1745.465 C974.996 1739.852 958.157 1723.013 952.544 1700.561 974.996 1672.495 991.835 1633.204 991.835 1593.913 L991.835 1481.652 C991.835 1386.23 918.865 1313.261 823.444 1313.261 728.022 1313.261 655.053 1386.23 655.053 1481.652 L655.053 1593.913 C655.053 1633.204 671.892 1672.495 694.344 1700.561 688.731 1723.013 671.892 1739.852 649.44 1745.465 565.244 1767.917 503.5 1835.274 492.274 1919.469 486.661 1936.308 492.274 1953.147 503.5 1964.374 509.114 1981.213 525.953 1986.826 542.792 1986.826 L1104.096 1986.826 C1120.935 1986.826 1137.774 1981.213 1149 1964.374 1160.226 1953.147 1165.839 1936.308 1160.226 1919.469 1143.387 1835.274 1076.031 1767.917 997.448 1745.465 Z" fill="#e7eced" fill-opacity="1" stroke="none"/>
 </g>
</svg>
