<svg xmlns="http://www.w3.org/2000/svg" xmlns:xlink="http://www.w3.org/1999/xlink" width="500" height="500" viewBox="0 0 500 500"><defs><clipPath id="b"><rect width="500" height="500"/></clipPath></defs><g id="a" clip-path="url(#b)"><g transform="translate(50 100.484)"><path d="M-675.065,382.688h-18.612a11.114,11.114,0,0,1-11.109-11.119,11.114,11.114,0,0,1,11.109-11.109h18.612a11.115,11.115,0,0,1,11.109,11.119,11.114,11.114,0,0,1-11.109,11.109" transform="translate(743.096 -222.809)" fill="#02bef9"/><path d="M-383.836,254.721h-42a4.481,4.481,0,0,1-4.464-4.046A149.25,149.25,0,0,0-594.179,117.65,149.251,149.251,0,0,0-720.22,218.532a4.469,4.469,0,0,1-4.243,3.045h-36.817a11.213,11.213,0,0,0-11.3,10.645,11.047,11.047,0,0,0,10.632,11.446c.134.005.269.007.4.007h48.852a11.04,11.04,0,0,0,10.984-9.888,126.927,126.927,0,0,1,154.951-90.612,126.926,126.926,0,0,1,90.613,154.951A126.926,126.926,0,0,1-611.1,388.738a126.926,126.926,0,0,1-90.585-90.5,11.041,11.041,0,0,0-11.012-10.362H-749.07a11.209,11.209,0,0,0-11.3,10.645,11.046,11.046,0,0,0,10.638,11.44q.2.008.409.007h24.748a4.475,4.475,0,0,1,4.255,3.074,149.3,149.3,0,0,0,188.881,94.37,149.3,149.3,0,0,0,94.369-94.37,4.476,4.476,0,0,1,4.249-3.062h6.549a11.217,11.217,0,0,0,11.3-10.645A11.04,11.04,0,0,0-425.6,287.89c-.138-.006-.276-.008-.415-.008a4.48,4.48,0,0,1-4.485-4.476,4.422,4.422,0,0,1,.027-.5c.073-.672.147-1.339.209-2.006a4.521,4.521,0,0,1,4.469-4.074h42.23a11.046,11.046,0,0,0,11.048-11.044c0-.134,0-.268-.007-.4a11.222,11.222,0,0,0-11.3-10.651" transform="translate(772.588 -116.839)" fill="#0a5fff"/><path d="M-142.008,302.4a11.053,11.053,0,0,0-11.057,11.046A11.052,11.052,0,0,0-142.019,324.5a11.051,11.051,0,0,0,11.057-11.046v-.006A11.046,11.046,0,0,0-142,302.4Z" transform="translate(503.108 -197.554)" fill="#494444"/><path d="M-408.477,312.262V304.37a3.936,3.936,0,0,0-.418-1.768l-15.785-31.571a3.954,3.954,0,0,0-3.528-2.178h-94.711a3.945,3.945,0,0,0-3.529,2.178L-542.233,302.6a3.911,3.911,0,0,0-.418,1.768v7.893a19.721,19.721,0,0,0,7.892,15.778v51.31H-538.7a3.948,3.948,0,0,0-3.946,3.946,3.948,3.948,0,0,0,3.946,3.946h126.282a3.948,3.948,0,0,0,3.946-3.946,3.948,3.948,0,0,0-3.946-3.946h-3.946V328.04A19.709,19.709,0,0,0-408.477,312.262Zm-51.3,11.839a11.853,11.853,0,0,1-11.839-11.839v-3.946h23.678v3.946A11.853,11.853,0,0,1-459.778,324.1Zm-74.98-11.839v-3.946h23.678v3.946A11.853,11.853,0,0,1-522.919,324.1,11.853,11.853,0,0,1-534.759,312.262Zm55.249-35.517v23.678h-22.573l5.92-23.678Zm24.546,0,5.92,23.678h-22.573V276.746Zm-48.224,31.57h23.678v3.946A11.853,11.853,0,0,1-491.349,324.1a11.853,11.853,0,0,1-11.839-11.839Zm63.141,0h23.678v3.946A11.853,11.853,0,0,1-428.208,324.1a11.853,11.853,0,0,1-11.839-11.839Zm21.239-7.893h-22.107l-5.92-23.678h16.188Zm-101.673-23.678h16.188l-5.92,23.678H-532.32Zm-6.385,54.854a19.743,19.743,0,0,0,3.947.394,19.7,19.7,0,0,0,15.785-7.909,19.7,19.7,0,0,0,15.786,7.909,19.7,19.7,0,0,0,15.785-7.909,19.763,19.763,0,0,0,11.839,7.506v47.75h-63.141V331.6Zm102.6,47.75h-31.57V331.6a19.764,19.764,0,0,0,11.839-7.506A19.7,19.7,0,0,0-428.208,332a19.742,19.742,0,0,0,3.946-.394V379.35Z" transform="translate(672.57 -182.962)" fill="#0a5fff"/><path d="M-367.134,412.487a3.948,3.948,0,0,1-3.946,3.946,3.948,3.948,0,0,1-3.946-3.946,3.948,3.948,0,0,1,3.946-3.946A3.948,3.948,0,0,1-367.134,412.487Z" transform="translate(599.657 -243.723)" fill="#0a5fff"/><path d="M-496.8,410.361a3.963,3.963,0,0,1-2.794-1.152,3.949,3.949,0,0,1,0-5.58l7.893-7.893a3.949,3.949,0,0,1,5.58,0,3.949,3.949,0,0,1,0,5.58l-7.893,7.893a3.93,3.93,0,0,1-2.794,1.152Z" transform="translate(654.344 -237.651)" fill="#0a5fff"/><path d="M-482.832,426.147a3.964,3.964,0,0,1-2.794-1.153,3.949,3.949,0,0,1,0-5.58l23.678-23.678a3.949,3.949,0,0,1,5.58,0,3.949,3.949,0,0,1,0,5.58l-23.678,23.678a3.931,3.931,0,0,1-2.794,1.153Z" transform="translate(648.268 -237.651)" fill="#0a5fff"/><path d="M-440.926,438.3a3.964,3.964,0,0,1-2.794-1.153,3.949,3.949,0,0,1,0-5.58l7.893-7.892a3.949,3.949,0,0,1,5.58,0,3.949,3.949,0,0,1,0,5.58l-7.893,7.892a3.931,3.931,0,0,1-2.794,1.153Z" transform="translate(630.039 -249.804)" fill="#0a5fff"/></g></g></svg>