<?xml version="1.0" encoding="UTF-8"?>
<svg width="2560px" height="2560px" viewBox="0 0 2560 2560" xmlns="http://www.w3.org/2000/svg" xmlns:xlink="http://www.w3.org/1999/xlink" version="1.1">
 <!-- Generated by Pixelmator Pro 2.2 -->
 <path id="Ellipse" d="M2560 1280 C2560 573.076 1986.029 0 1278 0 569.971 0 -4 573.076 -4 1280 -4 1986.925 569.971 2560 1278 2560 1986.029 2560 2560 1986.925 2560 1280 Z" fill="#556080" fill-opacity="1" stroke="none"/>
 <path id="1435580591547464161" d="M1910.203 1945.875 L1850.75 1945.875 1850.75 590.344 C1850.75 550.941 1818.809 519 1779.406 519 L780.594 519 C741.191 519 709.25 550.941 709.25 590.344 L709.25 1945.875 649.797 1945.875 C630.097 1945.875 614.125 1961.847 614.125 1981.547 L614.125 2041 1945.875 2041 1945.875 1981.547 C1945.875 1961.847 1929.903 1945.875 1910.203 1945.875 Z M994.625 744.922 C994.625 725.222 1010.597 709.25 1030.297 709.25 L1149.203 709.25 C1168.903 709.25 1184.875 725.222 1184.875 744.922 L1184.875 863.828 C1184.875 883.528 1168.903 899.5 1149.203 899.5 L1030.297 899.5 C1010.597 899.5 994.625 883.528 994.625 863.828 Z M994.625 1030.297 C994.625 1010.597 1010.597 994.625 1030.297 994.625 L1149.203 994.625 C1168.903 994.625 1184.875 1010.597 1184.875 1030.297 L1184.875 1149.203 C1184.875 1168.903 1168.903 1184.875 1149.203 1184.875 L1030.297 1184.875 C1010.597 1184.875 994.625 1168.903 994.625 1149.203 Z M1149.203 1470.25 L1030.297 1470.25 C1010.597 1470.25 994.625 1454.278 994.625 1434.578 L994.625 1315.672 C994.625 1295.972 1010.597 1280 1030.297 1280 L1149.203 1280 C1168.903 1280 1184.875 1295.972 1184.875 1315.672 L1184.875 1434.578 C1184.875 1454.278 1168.903 1470.25 1149.203 1470.25 Z M1375.125 1945.875 L1184.875 1945.875 1184.875 1696.172 C1184.875 1676.472 1200.847 1660.5 1220.547 1660.5 L1339.453 1660.5 C1359.153 1660.5 1375.125 1676.472 1375.125 1696.172 Z M1565.375 1434.578 C1565.375 1454.278 1549.403 1470.25 1529.703 1470.25 L1410.797 1470.25 C1391.097 1470.25 1375.125 1454.278 1375.125 1434.578 L1375.125 1315.672 C1375.125 1295.972 1391.097 1280 1410.797 1280 L1529.703 1280 C1549.403 1280 1565.375 1295.972 1565.375 1315.672 Z M1565.375 1149.203 C1565.375 1168.903 1549.403 1184.875 1529.703 1184.875 L1410.797 1184.875 C1391.097 1184.875 1375.125 1168.903 1375.125 1149.203 L1375.125 1030.297 C1375.125 1010.597 1391.097 994.625 1410.797 994.625 L1529.703 994.625 C1549.403 994.625 1565.375 1010.597 1565.375 1030.297 Z M1565.375 863.828 C1565.375 883.528 1549.403 899.5 1529.703 899.5 L1410.797 899.5 C1391.097 899.5 1375.125 883.528 1375.125 863.828 L1375.125 744.922 C1375.125 725.222 1391.097 709.25 1410.797 709.25 L1529.703 709.25 C1549.403 709.25 1565.375 725.222 1565.375 744.922 Z" fill="#e7eced" fill-opacity="1" stroke="none"/>
</svg>
