<?xml version="1.0" encoding="UTF-8"?>
<svg width="2560px" height="2560px" viewBox="0 0 2560 2560" xmlns="http://www.w3.org/2000/svg" xmlns:xlink="http://www.w3.org/1999/xlink" version="1.1">
 <!-- Generated by Pixelmator Pro 2.2 -->
 <path id="Ellipse" d="M2560 1280 C2560 573.076 1986.029 0 1278 0 569.971 0 -4 573.076 -4 1280 -4 1986.925 569.971 2560 1278 2560 1986.029 2560 2560 1986.925 2560 1280 Z" fill="#556080" fill-opacity="1" stroke="none"/>
 <path id="Path" d="M2182.028 1122.54 C2175.652 1114.192 2167.334 1109.226 2157.031 1107.65 L1939.169 1074.326 C1927.268 1036.227 1910.998 997.349 1890.366 957.658 1904.635 937.819 1926.055 909.848 1954.621 873.726 1983.188 837.613 2003.419 811.235 2015.336 794.561 2021.687 785.829 2024.839 776.71 2024.839 767.178 2024.839 756.074 2022.087 747.351 2016.508 740.993 1987.954 700.513 1922.473 633.06 1820.091 538.613 1810.605 530.678 1800.656 526.712 1790.352 526.712 1778.44 526.712 1768.92 530.277 1761.773 537.416 L1592.738 664.796 C1560.19 648.121 1524.476 633.44 1485.607 620.743 L1452.274 401.713 C1451.478 391.397 1446.908 382.862 1438.577 376.116 1430.233 369.361 1420.53 366 1409.401 366 L1145.126 366 C1122.11 366 1107.82 377.104 1102.27 399.328 1091.951 438.995 1080.438 512.802 1067.745 620.739 1030.439 632.664 994.33 647.742 959.413 665.992 L795.131 538.613 C784.815 530.678 774.5 526.712 764.184 526.712 746.725 526.712 709.232 555.083 651.69 611.828 594.148 668.586 555.082 711.238 534.43 739.796 527.283 750.112 523.722 759.243 523.722 767.178 523.722 776.71 527.683 786.234 535.618 795.745 588.786 860.041 631.254 914.785 663.002 960.043 643.159 996.544 627.685 1033.058 616.585 1069.56 L395.154 1102.884 C386.427 1104.477 378.892 1109.643 372.538 1118.374 366.17 1127.097 363.001 1136.233 363.001 1145.74 L363.001 1410.027 C363.001 1420.36 366.17 1429.662 372.525 1437.998 378.88 1446.329 387.207 1451.32 397.527 1452.892 L615.393 1485.04 C626.497 1523.922 642.763 1563.192 664.195 1602.863 649.918 1622.715 628.49 1650.681 599.919 1686.795 571.352 1722.925 551.096 1749.294 539.204 1765.96 532.845 1774.725 529.676 1783.827 529.676 1793.355 529.676 1803.658 532.453 1812.777 538.003 1820.712 568.955 1863.594 634.427 1930.258 734.433 2020.728 743.169 2029.459 753.092 2033.813 764.192 2033.813 776.105 2033.813 786.025 2030.26 793.955 2023.126 L961.823 1895.729 C994.38 1912.396 1030.085 1927.081 1068.971 1939.794 L1102.3 2158.824 C1103.104 2169.127 1107.666 2177.663 1115.989 2184.426 1124.316 2191.189 1134.048 2194.529 1145.156 2194.529 L1409.431 2194.529 C1432.489 2194.529 1446.758 2183.429 1452.324 2161.197 1462.627 2121.526 1474.127 2047.727 1486.824 1939.794 1524.126 1927.877 1560.24 1912.792 1595.157 1894.532 L1759.451 2023.126 C1770.555 2030.264 1780.887 2033.813 1790.39 2033.813 1807.844 2033.813 1845.142 2005.659 1902.275 1949.293 1959.437 1892.956 1998.72 1850.096 2020.127 1820.712 2027.261 1812.782 2030.839 1803.658 2030.839 1793.355 2030.839 1783.023 2026.891 1773.082 2018.926 1763.588 1961.81 1693.729 1919.342 1638.989 1891.559 1599.294 1907.429 1569.927 1922.911 1533.825 1937.993 1490.965 L2158.223 1457.658 C2167.726 1456.061 2175.69 1450.894 2182.024 1442.163 2188.374 1433.415 2191.526 1424.283 2191.526 1414.764 L2191.526 1150.506 C2191.547 1140.19 2188.395 1130.879 2182.028 1122.54 Z M1492.762 1495.731 C1433.256 1555.262 1361.429 1585.029 1277.289 1585.029 1193.157 1585.029 1121.339 1555.262 1061.808 1495.731 1002.298 1436.225 972.531 1364.394 972.531 1280.271 972.531 1196.139 1002.281 1124.32 1061.808 1064.79 1121.339 1005.28 1193.17 975.512 1277.289 975.512 1361.429 975.512 1433.26 1005.28 1492.762 1064.79 1552.28 1124.32 1582.047 1196.139 1582.047 1280.271 1582.047 1364.394 1552.284 1436.23 1492.762 1495.731 Z" fill="#e7eced" fill-opacity="1" stroke="none"/>
</svg>
